<svg width="28" height="30" viewBox="0 0 28 30" fill="none" xmlns="http://www.w3.org/2000/svg">
<path d="M14 0.599976C10.6789 0.599976 7.99998 3.27888 7.99998 6.59998V7.79998H3.25623L3.19998 8.32498L0.799976 29.325L0.724976 30H27.275L27.2 29.325L24.8 8.32498L24.7437 7.79998H20V6.59998C20 3.27888 17.3211 0.599976 14 0.599976ZM14 1.79998C16.6789 1.79998 18.8 3.92107 18.8 6.59998V7.79998H9.19998V6.59998C9.19998 3.92107 11.3211 1.79998 14 1.79998ZM4.34373 8.99998H7.99998V10.3687C7.64138 10.5773 7.39998 10.957 7.39998 11.4C7.39998 12.0633 7.93669 12.6 8.59998 12.6C9.26326 12.6 9.79998 12.0633 9.79998 11.4C9.79998 10.957 9.55857 10.5773 9.19998 10.3687V8.99998H18.8V10.3687C18.4414 10.5773 18.2 10.957 18.2 11.4C18.2 12.0633 18.7367 12.6 19.4 12.6C20.0633 12.6 20.6 12.0633 20.6 11.4C20.6 10.957 20.3586 10.5773 20 10.3687V8.99998H23.6562L25.925 28.8H2.07498L4.34373 8.99998Z" fill="white"/>
</svg>